<?xml version="1.0" standalone="no"?>
<!DOCTYPE svg PUBLIC "-//W3C//DTD SVG 20010904//EN"
 "http://www.w3.org/TR/2001/REC-SVG-20010904/DTD/svg10.dtd">
<svg version="1.0" xmlns="http://www.w3.org/2000/svg"
 width="428.000000pt" height="428.000000pt" viewBox="0 0 428.000000 428.000000"
 preserveAspectRatio="xMidYMid meet">
<metadata>
Created by potrace 1.14, written by Peter Selinger 2001-2017
</metadata>
<g transform="translate(0.000000,428.000000) scale(0.100000,-0.100000)"
fill="#000000" stroke="none">
<path d="M2115 4274 c-340 -23 -671 -122 -902 -270 -45 -28 -53 -39 -53 -64 0
-20 7 -34 22 -44 13 -8 398 -135 857 -282 878 -283 873 -281 856 -333 -3 -12
-62 -54 -142 -102 -140 -86 -164 -110 -144 -148 18 -33 643 -343 684 -339 29
3 40 17 145 188 62 102 176 282 251 400 76 118 144 226 150 239 32 60 -23 139
-210 295 -273 230 -636 386 -1028 440 -114 16 -379 27 -486 20z"/>
<path d="M930 3773 c-216 -234 -333 -522 -347 -853 -12 -305 46 -549 185 -770
78 -124 160 -212 256 -276 78 -52 112 -64 767 -283 376 -125 694 -233 705
-239 25 -13 34 -40 24 -68 -5 -11 -52 -47 -107 -79 -164 -98 -183 -112 -183
-144 0 -16 6 -34 13 -40 8 -6 265 -134 571 -285 444 -219 561 -273 579 -267
31 11 173 183 230 279 93 155 162 358 188 557 19 146 7 398 -25 520 -45 174
-137 342 -259 471 -58 63 -197 178 -243 202 -11 6 -332 112 -714 236 -381 123
-697 230 -702 238 -4 7 -7 26 -6 42 3 26 19 39 134 110 72 45 139 87 148 95
21 18 21 54 -2 73 -34 31 -1086 558 -1113 558 -21 0 -43 -17 -99 -77z"/>
<path d="M1029 1623 c-121 -132 -518 -713 -580 -848 -49 -107 1 -188 214 -346
268 -200 679 -353 1097 -410 136 -19 466 -16 623 5 150 20 324 61 452 106 167
59 408 192 420 231 10 30 -20 67 -62 79 -21 5 -409 126 -863 268 -716 224
-826 261 -836 281 -7 12 -9 31 -7 42 3 11 64 55 145 105 141 87 169 115 150
150 -11 21 -678 364 -708 364 -11 0 -32 -12 -45 -27z"/>
</g>
</svg>
